<svg width="112" height="69" viewBox="0 0 112 69" fill="none" xmlns="http://www.w3.org/2000/svg">
<path d="M60.3633 8.77533L68.3105 30.7753C68.6335 31.7445 68.9081 32.5521 69.1343 33.1982C69.3927 33.8443 69.6027 34.3935 69.7642 34.8458C69.9581 35.2981 70.1196 35.6858 70.2488 36.0088C70.378 36.2996 70.4911 36.558 70.588 36.7841C70.9434 37.5918 71.2987 38.2217 71.6541 38.674C72.0418 39.094 72.4294 39.417 72.8171 39.6432C73.2048 39.837 73.5924 39.9501 73.9801 39.9824C74.4001 40.0147 74.82 40.0308 75.24 40.0308L75.4823 40.2247L75.6277 41.0969L75.5307 41.2907C75.3046 41.2907 74.9654 41.2746 74.5131 41.2423C74.0609 41.21 73.5924 41.1777 73.1078 41.1454C72.6233 41.1131 72.1548 41.0808 71.7026 41.0485C71.2826 41.0162 70.9595 41 70.7334 41H69.1343C68.9081 41 68.5366 41.0162 68.0197 41.0485C67.5028 41.0808 66.9537 41.1131 66.3722 41.1454C65.823 41.1777 65.2899 41.21 64.773 41.2423C64.2562 41.2746 63.8846 41.2907 63.6585 41.2907L63.5616 41.0969L63.707 40.2247L63.9008 40.0308C64.8376 40.0308 65.5645 39.9339 66.0814 39.7401C66.5983 39.514 66.8567 38.9325 66.8567 37.9956C66.8567 37.2526 66.5983 36.2188 66.0814 34.8943C65.5968 33.5374 64.983 31.8414 64.24 29.8062L63.4162 27.4802H52.5616L51.7378 29.8062C50.9948 31.8414 50.3648 33.5374 49.8479 34.8943C49.3633 36.2188 49.1211 37.2526 49.1211 37.9956C49.1211 38.9325 49.3795 39.514 49.8964 39.7401C50.4133 39.9339 51.1401 40.0308 52.077 40.0308L52.3193 40.2247L52.4647 41.0969L52.3678 41.2907C52.1416 41.2907 51.7863 41.2746 51.3017 41.2423C50.8171 41.21 50.3002 41.1777 49.751 41.1454C49.2341 41.1131 48.7334 41.0808 48.2488 41.0485C47.7642 41.0162 47.4089 41 47.1827 41H46.262C46.0359 41 45.6967 41.0162 45.2444 41.0485C44.7921 41.0808 44.3237 41.1131 43.8391 41.1454C43.3545 41.1777 42.8861 41.21 42.4338 41.2423C42.0139 41.2746 41.6908 41.2907 41.4647 41.2907L41.4162 41.0969L41.5131 40.2247L41.7554 40.0308C42.1754 40.0308 42.5792 40.0147 42.9669 39.9824C43.3545 39.9501 43.7422 39.837 44.1299 39.6432C44.5175 39.417 44.889 39.094 45.2444 38.674C45.6321 38.2217 46.0197 37.5918 46.4074 36.7841C46.5043 36.6226 46.5851 36.4449 46.6497 36.2511C46.7466 36.025 46.8758 35.7019 47.0374 35.2819C47.2312 34.862 47.4573 34.3128 47.7158 33.6344C48.0065 32.9236 48.3619 32.0191 48.7818 30.9207C49.2341 29.79 49.7672 28.417 50.381 26.8018C51.0271 25.1865 51.8024 23.232 52.707 20.9383C53.1269 19.8076 53.5631 18.6931 54.0153 17.5947C54.4676 16.464 54.8876 15.4141 55.2752 14.4449C55.6629 13.4758 56.0021 12.6197 56.2929 11.8767C56.6159 11.1336 56.8421 10.5844 56.9713 10.2291L59.8303 8.77533H60.3633ZM53.3854 25.3965H62.6409L58.0374 12.9427L53.3854 25.3965ZM83.6138 23.8458C83.9368 23.232 84.2922 22.5859 84.6799 21.9075C85.0998 21.2291 85.5683 20.5991 86.0852 20.0176C86.602 19.4361 87.1835 18.9515 87.8297 18.5639C88.5081 18.1762 89.2672 17.9824 90.1072 17.9824C90.6887 17.9824 91.3348 18.0793 92.0455 18.2731C92.7885 18.4347 93.2893 18.6608 93.5477 18.9515L93.9354 19.3877L93.3539 23.1189H91.7548C91.6578 22.6667 91.3994 22.2628 90.9794 21.9075C90.5918 21.5198 89.978 21.326 89.138 21.326C88.3304 21.326 87.5874 21.5683 86.9089 22.0529C86.2305 22.5051 85.6329 23.0866 85.116 23.7974C84.6314 24.5081 84.2437 25.2673 83.953 26.0749C83.6946 26.8502 83.5653 27.5609 83.5653 28.207V32.5198C83.5653 33.2305 83.5653 33.812 83.5653 34.2643C83.5976 34.6843 83.6138 35.0558 83.6138 35.3789C83.6461 35.6696 83.6623 35.928 83.6623 36.1542C83.6946 36.348 83.7107 36.558 83.7107 36.7841L83.7592 37.2203C83.8238 37.7048 83.8884 38.1733 83.953 38.6256C84.0499 39.0455 84.2276 39.3686 84.486 39.5947C84.6476 39.7239 84.8737 39.8209 85.1645 39.8855C85.4875 39.9501 85.8106 39.9985 86.1336 40.0308C86.489 40.0631 86.8282 40.0954 87.1512 40.1278C87.4743 40.1278 87.7327 40.1278 87.9266 40.1278L88.1689 40.37L88.2658 41L88.1689 41.1938C87.9427 41.1938 87.5712 41.1777 87.0543 41.1454C86.5697 41.1131 86.0529 41.0808 85.5037 41.0485C84.9545 41.0485 84.4214 41.0323 83.9045 41C83.42 41 83.0646 41 82.8385 41H81.6755C81.4493 41 81.094 41 80.6094 41C80.1571 41.0323 79.6725 41.0485 79.1556 41.0485C78.6388 41.0808 78.138 41.1131 77.6534 41.1454C77.2012 41.1777 76.862 41.1938 76.6358 41.1938L76.5874 41L76.6358 40.3216L76.8297 40.1278C77.3465 40.1278 77.8473 40.1116 78.3319 40.0793C78.8487 40.0147 79.2364 39.8532 79.4949 39.5947C79.7533 39.3686 79.9148 39.0778 79.9794 38.7225C80.0763 38.3671 80.1571 37.8664 80.2217 37.2203L80.2702 36.7841C80.3025 36.4611 80.3186 36.0573 80.3186 35.5727C80.3509 35.0881 80.3671 34.2643 80.3671 33.1013V27.141C80.3671 26.4626 80.3671 25.8972 80.3671 25.4449C80.3671 24.9604 80.3509 24.5404 80.3186 24.185C80.3186 23.8297 80.3025 23.5066 80.2702 23.2159C80.2702 22.9251 80.254 22.6182 80.2217 22.2952C80.1571 21.9398 80.0602 21.6329 79.931 21.3744C79.8018 21.0837 79.6887 20.8899 79.5918 20.793C79.2687 20.4053 78.8649 20.1791 78.3803 20.1145C77.8957 20.0176 77.395 19.9692 76.8781 19.9692L76.6843 19.7753V19.0969L76.8781 18.9515H77.7504C78.2996 18.9515 78.9941 18.9515 79.8341 18.9515C80.674 18.9192 81.4009 18.8546 82.0147 18.7577L83.7107 18.5154L84.0015 18.9515C83.8076 19.63 83.6623 20.4053 83.5653 21.2775C83.5007 22.1498 83.4684 22.9897 83.4684 23.7974L83.6138 23.8458ZM109.161 20.9868H102.862C102.862 23.0866 102.845 25.025 102.813 26.8018C102.813 28.5786 102.813 30.1454 102.813 31.5022C102.813 32.8267 102.797 33.8928 102.765 34.7004C102.765 35.5081 102.765 36.0088 102.765 36.2026C102.765 37.4626 103.007 38.3025 103.491 38.7225C103.976 39.1424 104.541 39.3524 105.188 39.3524C105.737 39.3524 106.367 39.2555 107.077 39.0617C107.82 38.8355 108.418 38.5932 108.87 38.3348L109.306 38.674L108.87 40.0308C108.127 40.5477 107.287 40.9192 106.351 41.1454C105.446 41.4038 104.638 41.533 103.928 41.533C102.28 41.533 101.117 41.0808 100.439 40.1762C99.7602 39.2717 99.421 38.1087 99.421 36.6872C99.421 36.3965 99.4371 35.7988 99.4694 34.8943C99.5018 33.9897 99.5341 32.859 99.5664 31.5022C99.5987 30.1454 99.631 28.5786 99.6633 26.8018C99.6956 25.025 99.7117 23.0866 99.7117 20.9868H96.2228L96.0289 20.7445V19.8238L96.2228 19.63L99.7117 18.9515C99.7117 17.8209 99.6794 16.674 99.6148 15.511C99.5825 14.3157 99.5341 13.1527 99.4694 12.022L99.8087 11.7313L100.487 11.6828C100.746 11.6505 101.165 11.5859 101.747 11.489C102.328 11.3921 102.732 11.279 102.958 11.1498L103.395 11.3436C103.298 11.7959 103.217 12.3289 103.152 12.9427C103.088 13.5242 103.023 14.1542 102.958 14.8326C102.926 15.511 102.894 16.2056 102.862 16.9163C102.862 17.627 102.862 18.3054 102.862 18.9515L109.161 18.6608L109.403 18.8546V20.7445L109.161 20.9868Z" fill="white"/>
<path d="M16.2703 47.636L16.2262 48.0328L16.116 48.121C15.8809 48.121 15.6531 48.1357 15.4326 48.1651C15.2269 48.1798 15.0652 48.2385 14.9477 48.3414C14.8301 48.4443 14.7199 48.5765 14.617 48.7382C14.5288 48.8999 14.47 49.1864 14.4406 49.5979C14.4259 49.8037 14.4112 49.9947 14.3966 50.1711C14.3966 50.3474 14.3892 50.5532 14.3745 50.7883C14.3745 51.0234 14.3745 51.31 14.3745 51.648C14.3745 51.986 14.3745 52.4196 14.3745 52.9486V56.8284C14.3745 57.6514 14.3745 58.3274 14.3745 58.8564C14.3892 59.3855 14.3966 59.8411 14.3966 60.2232C14.4112 60.5906 14.4259 60.9212 14.4406 61.2152C14.47 61.5091 14.4994 61.8324 14.5288 62.1851L14.3525 62.2953L12.9857 62.2071L12.7653 61.9426L4.9176 50.1931C4.9176 50.3401 4.91025 50.487 4.89555 50.634C4.89555 50.781 4.89555 50.9647 4.89555 51.1851C4.89555 51.3908 4.89555 51.6333 4.89555 51.9126C4.89555 52.1918 4.89555 52.5371 4.89555 52.9486V57.0047C4.89555 57.1811 4.89555 57.4162 4.89555 57.7101C4.89555 57.9894 4.89555 58.2833 4.89555 58.5919C4.91025 58.9005 4.9176 59.2018 4.9176 59.4957C4.93229 59.7749 4.94699 60.0027 4.96168 60.1791C4.99108 60.5465 5.04986 60.8257 5.13804 61.0168C5.24091 61.1931 5.36583 61.3327 5.51279 61.4356C5.63035 61.5238 5.78466 61.5826 5.97571 61.612C6.16676 61.6413 6.40925 61.656 6.70317 61.656L6.81339 61.7442L6.87952 62.141L6.83543 62.2292C6.73256 62.2292 6.5709 62.2218 6.35046 62.2071C6.14472 62.1924 5.92428 62.1778 5.68914 62.1631C5.454 62.1484 5.22621 62.1337 5.00577 62.119C4.80003 62.1043 4.64572 62.0969 4.54285 62.0969H4.12401C4.02114 62.0969 3.85213 62.1043 3.61699 62.119C3.38186 62.1337 3.13937 62.1484 2.88954 62.1631C2.63971 62.1778 2.39722 62.1924 2.16208 62.2071C1.92695 62.2218 1.75794 62.2292 1.65507 62.2292L1.61098 62.141L1.67711 61.7442L1.78733 61.656C2.05186 61.656 2.2723 61.6487 2.44866 61.634C2.63971 61.6046 2.80871 61.5385 2.95567 61.4356C3.05854 61.3621 3.16142 61.2446 3.26429 61.0829C3.38186 60.9065 3.46269 60.6053 3.50677 60.1791C3.52147 60.0762 3.52882 59.9586 3.52882 59.8264C3.54351 59.6794 3.55086 59.5031 3.55086 59.2973C3.55086 59.0916 3.55086 58.8417 3.55086 58.5478C3.55086 58.2539 3.55086 57.8865 3.55086 57.4456V52.9707C3.55086 52.4563 3.55086 52.0228 3.55086 51.6701C3.55086 51.3174 3.55086 51.0161 3.55086 50.7663C3.55086 50.5164 3.54351 50.3033 3.52882 50.127C3.52882 49.9506 3.52147 49.7743 3.50677 49.5979C3.47738 49.2893 3.41125 49.0321 3.30838 48.8264C3.2055 48.6059 3.08794 48.4443 2.95567 48.3414C2.82341 48.2385 2.6544 48.1798 2.44866 48.1651C2.25761 48.1357 2.03717 48.121 1.78733 48.121L1.67711 48.0328L1.61098 47.636L1.65507 47.5478C1.75794 47.5478 1.9049 47.5552 2.09595 47.5699C2.3017 47.5846 2.50744 47.5993 2.71319 47.614C2.91893 47.6287 3.11733 47.6433 3.30838 47.658C3.51412 47.6727 3.66843 47.6801 3.7713 47.6801H4.54285C4.66041 47.6801 4.82207 47.6727 5.02782 47.658C5.24826 47.6433 5.42461 47.6213 5.55687 47.5919L5.66709 47.658C5.72588 47.8638 5.84345 48.1504 6.0198 48.5178C6.21085 48.8705 6.43129 49.2673 6.68112 49.7081C6.94565 50.149 7.22488 50.6193 7.5188 51.119C7.82742 51.6186 8.13603 52.111 8.44465 52.5959C9.56155 54.3888 10.5315 55.8511 11.3545 56.9827C12.1921 58.1143 12.7286 58.8491 12.9637 59.1871C12.9637 59.0842 12.9637 58.9887 12.9637 58.9005C12.9784 58.8124 12.9857 58.7095 12.9857 58.5919C12.9857 58.4743 12.9857 58.3274 12.9857 58.151C12.9857 57.9747 12.9857 57.7395 12.9857 57.4456V52.9707C12.9857 52.4563 12.9857 52.0228 12.9857 51.6701C12.9857 51.3174 12.9784 51.0161 12.9637 50.7663C12.9637 50.5164 12.9563 50.3033 12.9416 50.127C12.9416 49.9506 12.9343 49.7743 12.9196 49.5979C12.8902 49.1864 12.8241 48.8999 12.7212 48.7382C12.6183 48.5765 12.5081 48.4443 12.3905 48.3414C12.2583 48.2385 12.0819 48.1798 11.8615 48.1651C11.6557 48.1357 11.4353 48.121 11.2002 48.121L11.112 48.0328L11.0459 47.636L11.0899 47.5478C11.1928 47.5478 11.3398 47.5552 11.5308 47.5699C11.7219 47.5846 11.9129 47.5993 12.104 47.614C12.3097 47.6287 12.5081 47.6433 12.6992 47.658C12.8902 47.6727 13.0372 47.6801 13.14 47.6801H14.1761C14.279 47.6801 14.4259 47.6801 14.617 47.6801C14.808 47.6654 15.0064 47.6507 15.2122 47.636C15.4179 47.6213 15.6163 47.6066 15.8074 47.5919C15.9984 47.5772 16.1454 47.5625 16.2483 47.5478L16.2703 47.636ZM27.2176 56.1671L26.8649 56.3214C26.0713 56.3214 25.2557 56.3287 24.418 56.3434C23.5803 56.3581 22.7573 56.3655 21.9491 56.3655H19.3479C19.3332 56.4683 19.3258 56.5712 19.3258 56.6741C19.3258 56.7623 19.3258 56.8504 19.3258 56.9386C19.3258 57.4971 19.4066 58.0335 19.5683 58.5478C19.73 59.0475 19.9798 59.4884 20.3178 59.8705C20.6705 60.2526 21.1187 60.5612 21.6625 60.7963C22.2062 61.0168 22.8676 61.127 23.6465 61.127C24.102 61.127 24.587 61.0829 25.1014 60.9947C25.6304 60.8918 26.1154 60.7155 26.5563 60.4657L26.7767 60.5979V60.9947L26.5563 61.2372C26.2036 61.5164 25.7039 61.7736 25.0573 62.0087C24.4107 62.2292 23.6905 62.3394 22.897 62.3394C22.1181 62.3394 21.4053 62.2145 20.7587 61.9647C20.1268 61.7001 19.5757 61.3327 19.1054 60.8625C18.6498 60.3922 18.2897 59.8337 18.0252 59.1871C17.7754 58.5405 17.6505 57.8204 17.6505 57.0268C17.6505 56.2185 17.7827 55.4837 18.0473 54.8224C18.3118 54.1611 18.6718 53.5953 19.1274 53.125C19.5977 52.6547 20.1414 52.2873 20.7587 52.0228C21.3906 51.7582 22.0666 51.626 22.7867 51.626C23.1688 51.626 23.595 51.6774 24.0653 51.7803C24.5503 51.8832 25.0132 52.0816 25.4541 52.3755C25.895 52.6547 26.2918 53.0588 26.6445 53.5879C26.9972 54.1023 27.2396 54.7856 27.3719 55.638L27.2176 56.1671ZM22.8088 52.618C22.3385 52.618 21.9123 52.6988 21.5302 52.8605C21.1628 53.0074 20.8322 53.2132 20.5382 53.4777C20.259 53.7275 20.0239 54.0288 19.8328 54.3815C19.6565 54.7195 19.5316 55.0796 19.4581 55.4617H20.3178C21.1114 55.4617 21.8829 55.4543 22.6324 55.4396C23.3819 55.4102 24.1682 55.3735 24.9911 55.3294C25.1822 55.3147 25.3071 55.2633 25.3659 55.1751C25.4394 55.0869 25.4761 54.984 25.4761 54.8665C25.4761 54.7783 25.4688 54.6975 25.4541 54.624C25.4394 54.5505 25.4173 54.477 25.3879 54.4035C25.2263 53.8451 24.925 53.4116 24.4841 53.1029C24.0433 52.7796 23.4848 52.618 22.8088 52.618ZM39.6632 62.0969L37.062 55.3955C36.9004 55.807 36.7387 56.2185 36.577 56.63C36.4301 57.0415 36.2905 57.4309 36.1582 57.7983C36.0259 58.151 35.9084 58.4596 35.8055 58.7242C35.7026 58.9887 35.6291 59.1724 35.5851 59.2753L34.4608 62.0969L33.1161 62.2071L32.8957 62.0969L31.573 58.5699C31.5289 58.4523 31.4334 58.2245 31.2865 57.8865C31.1542 57.5338 30.9999 57.137 30.8235 56.6961C30.6472 56.2552 30.4635 55.807 30.2724 55.3514C30.0961 54.8812 29.9344 54.4697 29.7875 54.117C29.6405 53.7643 29.5082 53.485 29.3907 53.2793C29.2437 53.0442 29.0747 52.8605 28.8837 52.7282C28.7073 52.5959 28.4648 52.5151 28.1562 52.4857L28.0239 52.3755V52.0669L28.1121 51.9787C28.3619 52.0081 28.6265 52.0375 28.9057 52.0669C29.1849 52.0963 29.4421 52.111 29.6772 52.111H30.537C30.7721 52.111 31.0513 52.0963 31.3746 52.0669C31.7126 52.0375 32.0286 52.0081 32.3225 51.9787L32.4107 52.0669V52.3314L32.3225 52.4196C31.9992 52.449 31.7273 52.5371 31.5069 52.6841C31.3012 52.8164 31.1983 53.0148 31.1983 53.2793C31.1983 53.3969 31.2277 53.5806 31.2865 53.8304C31.3599 54.0802 31.4481 54.3594 31.551 54.6681C31.6539 54.9767 31.7641 55.3073 31.8817 55.66C31.9992 55.9981 32.1168 56.3214 32.2344 56.63C32.3519 56.9386 32.4548 57.2105 32.543 57.4456C32.6311 57.6808 32.6899 57.8424 32.7193 57.9306L33.7995 60.7963L34.8576 58.2613C34.9458 58.0408 35.0633 57.7542 35.2103 57.4015C35.372 57.0488 35.5263 56.6667 35.6732 56.2552C35.8349 55.8438 35.9819 55.4249 36.1141 54.9987C36.2611 54.5725 36.3639 54.1831 36.4227 53.8304C36.3493 53.5512 36.2317 53.2793 36.07 53.0148C35.9231 52.7355 35.6218 52.5592 35.1662 52.4857L35.034 52.3755V52.0669L35.1221 51.9787C35.372 52.0081 35.5998 52.0375 35.8055 52.0669C36.0259 52.0963 36.2537 52.111 36.4889 52.111H37.3486C37.8336 52.111 38.3553 52.0669 38.9137 51.9787L39.0019 52.0669V52.3314L38.9137 52.4196C38.2671 52.493 37.9438 52.7796 37.9438 53.2793C37.9438 53.3969 37.9732 53.5806 38.032 53.8304C38.1054 54.0802 38.1936 54.3594 38.2965 54.6681C38.3994 54.9767 38.5096 55.3073 38.6271 55.66C38.7447 55.9981 38.8623 56.3214 38.9798 56.63C39.0974 56.9386 39.2003 57.2105 39.2885 57.4456C39.3766 57.6808 39.4354 57.8424 39.4648 57.9306L40.545 60.7963L41.6031 58.2613C41.706 58.0114 41.8456 57.6734 42.0219 57.2472C42.1983 56.821 42.3746 56.3655 42.551 55.8805C42.7273 55.3955 42.8743 54.9252 42.9919 54.4697C43.1241 53.9994 43.1903 53.6026 43.1903 53.2793C43.1903 52.956 43.0727 52.7429 42.8376 52.64C42.6024 52.5224 42.3379 52.449 42.044 52.4196L41.9558 52.3314V52.0669L42.044 51.9787C42.6318 52.0669 43.1682 52.111 43.6532 52.111H44.557C44.8068 52.111 45.042 52.0963 45.2624 52.0669C45.4975 52.0375 45.7621 52.0081 46.056 51.9787L46.1221 52.0669V52.3755L46.0119 52.4857C45.7474 52.5151 45.5196 52.5886 45.3285 52.7061C45.1522 52.8237 44.9832 53.0148 44.8215 53.2793C44.6746 53.5144 44.5203 53.8083 44.3586 54.1611C44.1969 54.5138 44.0279 54.8959 43.8516 55.3073C43.6899 55.7188 43.5283 56.1377 43.3666 56.5639C43.205 56.99 43.0507 57.3868 42.9037 57.7542C42.7714 58.1216 42.6539 58.445 42.551 58.7242C42.4481 58.9887 42.3746 59.1724 42.3305 59.2753L41.2063 62.0969L39.8616 62.2071L39.6632 62.0969ZM51.9733 56.2552C52.5905 56.3875 53.0828 56.5712 53.4502 56.8063C53.8323 57.0268 54.1263 57.2693 54.332 57.5338C54.5377 57.7983 54.67 58.0702 54.7288 58.3494C54.8023 58.614 54.839 58.8638 54.839 59.0989C54.839 59.5692 54.7435 60.0027 54.5524 60.3995C54.3614 60.7963 54.0822 61.1417 53.7148 61.4356C53.3621 61.7148 52.9285 61.9353 52.4142 62.0969C51.8998 62.2586 51.3193 62.3394 50.6727 62.3394C49.9526 62.3394 49.2766 62.2586 48.6446 62.0969C48.0274 61.9206 47.5351 61.7369 47.1677 61.5458L47.1236 61.3474L47.4542 59.0769H47.9613L48.0274 59.1651C48.0274 59.8705 48.2478 60.4289 48.6887 60.8404C49.1296 61.2372 49.7689 61.4356 50.6066 61.4356C51.1062 61.4356 51.5251 61.3768 51.8631 61.2592C52.2011 61.1417 52.4656 60.9874 52.6567 60.7963C52.8624 60.6053 53.0094 60.3995 53.0975 60.1791C53.1857 59.9586 53.2298 59.7456 53.2298 59.5398C53.2298 59.4075 53.2225 59.2606 53.2078 59.0989C53.1931 58.9226 53.1343 58.7536 53.0314 58.5919C52.9285 58.4156 52.7742 58.2539 52.5685 58.1069C52.3627 57.9453 52.0688 57.813 51.6867 57.7101L49.5705 57.1811C49.0855 57.0635 48.6887 56.9092 48.3801 56.7182C48.0715 56.5271 47.829 56.3214 47.6526 56.1009C47.4763 55.8658 47.3514 55.6233 47.2779 55.3735C47.2044 55.1089 47.1677 54.8444 47.1677 54.5799C47.1677 54.0949 47.2632 53.6687 47.4542 53.3013C47.6453 52.9192 47.9025 52.6106 48.2258 52.3755C48.5638 52.1256 48.9532 51.9419 49.3941 51.8244C49.835 51.6921 50.3126 51.626 50.827 51.626C51.5177 51.626 52.1496 51.7142 52.7228 51.8905C53.3106 52.0669 53.7662 52.2432 54.0895 52.4196L54.1557 52.618L53.9132 54.3154H53.4502L53.3621 54.2492C53.3621 53.9112 53.2665 53.632 53.0755 53.4116C52.8991 53.1764 52.6787 52.9927 52.4142 52.8605C52.1496 52.7135 51.8704 52.6106 51.5765 52.5518C51.2826 52.493 51.0254 52.4637 50.8049 52.4637C50.0701 52.4637 49.5411 52.6474 49.2178 53.0148C48.8945 53.3822 48.7328 53.7937 48.7328 54.2492C48.7328 54.5872 48.843 54.9106 49.0635 55.2192C49.2986 55.5131 49.7468 55.7409 50.4082 55.9025L51.9733 56.2552ZM59.6105 54.2933C59.7575 54.0141 59.9191 53.7202 60.0955 53.4116C60.2865 53.1029 60.4996 52.8164 60.7348 52.5518C60.9699 52.2873 61.2344 52.0669 61.5284 51.8905C61.837 51.7142 62.1823 51.626 62.5644 51.626C62.829 51.626 63.1229 51.6701 63.4462 51.7582C63.7842 51.8317 64.012 51.9346 64.1296 52.0669L64.3059 52.2653L64.0414 53.9627H63.3139C63.2698 53.7569 63.1523 53.5732 62.9612 53.4116C62.7849 53.2352 62.5057 53.147 62.1236 53.147C61.7562 53.147 61.4181 53.2572 61.1095 53.4777C60.8009 53.6834 60.529 53.948 60.2939 54.2713C60.0735 54.5946 59.8971 54.9399 59.7648 55.3073C59.6473 55.66 59.5885 55.9834 59.5885 56.2773V58.2392C59.5885 58.5625 59.5885 58.8271 59.5885 59.0328C59.6032 59.2238 59.6105 59.3928 59.6105 59.5398C59.6252 59.6721 59.6326 59.7896 59.6326 59.8925C59.6473 59.9807 59.6546 60.0762 59.6546 60.1791L59.6767 60.3775C59.7061 60.5979 59.7354 60.811 59.7648 61.0168C59.8089 61.2078 59.8898 61.3548 60.0073 61.4576C60.0808 61.5164 60.1837 61.5605 60.3159 61.5899C60.4629 61.6193 60.6099 61.6413 60.7568 61.656C60.9185 61.6707 61.0728 61.6854 61.2197 61.7001C61.3667 61.7001 61.4843 61.7001 61.5725 61.7001L61.6827 61.8104L61.7268 62.0969L61.6827 62.1851C61.5798 62.1851 61.4108 62.1778 61.1757 62.1631C60.9552 62.1484 60.7201 62.1337 60.4702 62.119C60.2204 62.119 59.9779 62.1116 59.7428 62.0969C59.5224 62.0969 59.3607 62.0969 59.2578 62.0969H58.7288C58.6259 62.0969 58.4642 62.0969 58.2438 62.0969C58.0381 62.1116 57.8176 62.119 57.5825 62.119C57.3473 62.1337 57.1195 62.1484 56.8991 62.1631C56.6934 62.1778 56.5391 62.1851 56.4362 62.1851L56.4141 62.0969L56.4362 61.7883L56.5244 61.7001C56.7595 61.7001 56.9873 61.6928 57.2077 61.6781C57.4429 61.6487 57.6192 61.5752 57.7368 61.4576C57.8543 61.3548 57.9278 61.2225 57.9572 61.0609C58.0013 60.8992 58.0381 60.6714 58.0674 60.3775L58.0895 60.1791C58.1042 60.0321 58.1115 59.8484 58.1115 59.628C58.1262 59.4075 58.1336 59.0328 58.1336 58.5037V55.7923C58.1336 55.4837 58.1336 55.2265 58.1336 55.0208C58.1336 54.8003 58.1262 54.6093 58.1115 54.4476C58.1115 54.286 58.1042 54.139 58.0895 54.0067C58.0895 53.8745 58.0821 53.7349 58.0674 53.5879C58.0381 53.4262 57.994 53.2866 57.9352 53.1691C57.8764 53.0368 57.825 52.9486 57.7809 52.9045C57.6339 52.7282 57.4502 52.6253 57.2298 52.5959C57.0093 52.5518 56.7815 52.5298 56.5464 52.5298L56.4582 52.4416V52.133L56.5464 52.0669H56.9432C57.193 52.0669 57.509 52.0669 57.8911 52.0669C58.2732 52.0522 58.6038 52.0228 58.8831 51.9787L59.6546 51.8685L59.7869 52.0669C59.6987 52.3755 59.6326 52.7282 59.5885 53.125C59.5591 53.5218 59.5444 53.9039 59.5444 54.2713L59.6105 54.2933ZM70.9929 51.626C71.8599 51.626 72.6315 51.7803 73.3075 52.0889C73.9835 52.3828 74.5493 52.787 75.0049 53.3013C75.4752 53.801 75.8279 54.3815 76.063 55.0428C76.3128 55.7041 76.4377 56.3875 76.4377 57.0929C76.4377 57.7689 76.3275 58.4229 76.1071 59.0548C75.8866 59.6868 75.5486 60.2452 75.0931 60.7302C74.6375 61.2152 74.0717 61.6046 73.3957 61.8985C72.7196 62.1924 71.9334 62.3394 71.0369 62.3394C70.1111 62.3394 69.3028 62.1851 68.6121 61.8765C67.9214 61.5679 67.3482 61.1637 66.8927 60.6641C66.4518 60.1644 66.1211 59.5986 65.9007 58.9667C65.6802 58.32 65.57 57.6587 65.57 56.9827C65.57 56.2626 65.6949 55.5792 65.9448 54.9326C66.1946 54.286 66.5473 53.7202 67.0029 53.2352C67.4731 52.7355 68.0389 52.3461 68.7003 52.0669C69.3763 51.7729 70.1405 51.626 70.9929 51.626ZM71.0149 61.4797C71.6321 61.4797 72.1759 61.3548 72.6462 61.1049C73.1164 60.8551 73.5059 60.5244 73.8145 60.113C74.1231 59.7015 74.3509 59.2385 74.4979 58.7242C74.6595 58.1951 74.7404 57.6514 74.7404 57.0929C74.7404 56.5639 74.6522 56.0275 74.4758 55.4837C74.3142 54.9399 74.0717 54.455 73.7484 54.0288C73.4251 53.5879 73.0283 53.2352 72.558 52.9707C72.0877 52.6914 71.544 52.5518 70.9267 52.5518C70.2801 52.5518 69.7216 52.6841 69.2514 52.9486C68.7958 53.1985 68.4137 53.5291 68.1051 53.9406C67.8112 54.3521 67.5907 54.8224 67.4438 55.3514C67.2968 55.8805 67.2233 56.4095 67.2233 56.9386C67.2233 57.4824 67.3041 58.0261 67.4658 58.5699C67.6422 59.0989 67.892 59.5839 68.2153 60.0248C68.5386 60.451 68.9354 60.8037 69.4057 61.0829C69.876 61.3474 70.4124 61.4797 71.0149 61.4797ZM83.8447 51.626C84.7118 51.626 85.4833 51.7803 86.1594 52.0889C86.8354 52.3828 87.4012 52.787 87.8568 53.3013C88.327 53.801 88.6797 54.3815 88.9149 55.0428C89.1647 55.7041 89.2896 56.3875 89.2896 57.0929C89.2896 57.7689 89.1794 58.4229 88.959 59.0548C88.7385 59.6868 88.4005 60.2452 87.9449 60.7302C87.4894 61.2152 86.9236 61.6046 86.2475 61.8985C85.5715 62.1924 84.7853 62.3394 83.8888 62.3394C82.963 62.3394 82.1547 62.1851 81.464 61.8765C80.7733 61.5679 80.2001 61.1637 79.7445 60.6641C79.3036 60.1644 78.973 59.5986 78.7525 58.9667C78.5321 58.32 78.4219 57.6587 78.4219 56.9827C78.4219 56.2626 78.5468 55.5792 78.7966 54.9326C79.0465 54.286 79.3992 53.7202 79.8548 53.2352C80.325 52.7355 80.8908 52.3461 81.5521 52.0669C82.2282 51.7729 82.9924 51.626 83.8447 51.626ZM83.8668 61.4797C84.484 61.4797 85.0278 61.3548 85.498 61.1049C85.9683 60.8551 86.3578 60.5244 86.6664 60.113C86.975 59.7015 87.2028 59.2385 87.3497 58.7242C87.5114 58.1951 87.5922 57.6514 87.5922 57.0929C87.5922 56.5639 87.5041 56.0275 87.3277 55.4837C87.166 54.9399 86.9236 54.455 86.6002 54.0288C86.2769 53.5879 85.8801 53.2352 85.4099 52.9707C84.9396 52.6914 84.3958 52.5518 83.7786 52.5518C83.132 52.5518 82.5735 52.6841 82.1032 52.9486C81.6477 53.1985 81.2656 53.5291 80.957 53.9406C80.663 54.3521 80.4426 54.8224 80.2956 55.3514C80.1487 55.8805 80.0752 56.4095 80.0752 56.9386C80.0752 57.4824 80.156 58.0261 80.3177 58.5699C80.494 59.0989 80.7439 59.5839 81.0672 60.0248C81.3905 60.451 81.7873 60.8037 82.2576 61.0829C82.7278 61.3474 83.2642 61.4797 83.8668 61.4797ZM91.0313 52.133L91.1195 52.0669H91.5162C91.7661 52.0669 92.082 52.0669 92.4641 52.0669C92.8462 52.0522 93.1769 52.0228 93.4561 51.9787L94.2277 51.8685L94.3599 52.0669C94.3305 52.155 94.3011 52.2726 94.2718 52.4196C94.2571 52.5518 94.235 52.7061 94.2056 52.8825C94.1909 53.0442 94.1762 53.2058 94.1615 53.3675C94.1468 53.5291 94.1395 53.6687 94.1395 53.7863L94.2056 53.8304C94.3673 53.5365 94.551 53.2572 94.7567 52.9927C94.9772 52.7135 95.227 52.4784 95.5062 52.2873C95.7855 52.0816 96.1014 51.9199 96.4541 51.8023C96.8068 51.6848 97.211 51.626 97.6665 51.626C98.0486 51.626 98.4234 51.6774 98.7908 51.7803C99.1582 51.8685 99.4962 52.0154 99.8048 52.2212C100.128 52.4122 100.407 52.6694 100.642 52.9927C100.892 53.3013 101.083 53.6761 101.216 54.117C101.392 53.7937 101.583 53.485 101.789 53.1911C102.009 52.8825 102.259 52.618 102.538 52.3975C102.832 52.1624 103.163 51.9787 103.53 51.8464C103.912 51.6995 104.346 51.626 104.831 51.626C105.257 51.626 105.669 51.6848 106.065 51.8023C106.477 51.9199 106.844 52.1036 107.168 52.3534C107.506 52.6033 107.792 52.9192 108.027 53.3013C108.277 53.6834 108.446 54.1464 108.534 54.6901C108.608 55.0722 108.645 55.4763 108.645 55.9025C108.659 56.3287 108.667 56.7549 108.667 57.1811V60.3775C108.667 60.7155 108.696 60.9653 108.755 61.127C108.814 61.2739 108.894 61.3842 108.997 61.4576C109.115 61.5752 109.284 61.6487 109.504 61.6781C109.739 61.6928 109.974 61.7001 110.21 61.7001L110.298 61.7883L110.342 62.0969L110.298 62.1851C110.033 62.1557 109.747 62.1337 109.438 62.119C109.144 62.1043 108.843 62.0969 108.534 62.0969C107.991 62.0969 107.491 62.119 107.035 62.1631L106.881 61.9426C106.94 61.7516 106.984 61.5017 107.013 61.1931C107.043 60.8845 107.065 60.6126 107.079 60.3775C107.094 60.157 107.101 59.8852 107.101 59.5619C107.116 59.2385 107.123 58.9152 107.123 58.5919C107.138 58.2539 107.146 57.9379 107.146 57.644C107.146 57.3501 107.146 57.1223 107.146 56.9607C107.146 56.6667 107.131 56.2993 107.101 55.8584C107.087 55.4029 107.043 55.0208 106.969 54.7122C106.822 54.1096 106.521 53.654 106.065 53.3454C105.624 53.0368 105.125 52.8825 104.566 52.8825C104.155 52.8825 103.773 52.9633 103.42 53.125C103.082 53.2719 102.781 53.463 102.516 53.6981C102.252 53.9186 102.024 54.1684 101.833 54.4476C101.657 54.7269 101.524 54.9914 101.436 55.2412C101.465 55.5645 101.48 55.8878 101.48 56.2112C101.495 56.5345 101.502 56.8578 101.502 57.1811V60.3775C101.502 60.6861 101.532 60.9212 101.59 61.0829C101.649 61.2299 101.737 61.3548 101.855 61.4576C101.972 61.5605 102.134 61.6266 102.34 61.656C102.56 61.6854 102.781 61.7001 103.001 61.7001L103.111 61.8104L103.156 62.0969L103.111 62.1851C103.009 62.1851 102.854 62.1778 102.649 62.1631C102.443 62.1484 102.222 62.1337 101.987 62.119C101.752 62.119 101.532 62.1116 101.326 62.0969C101.12 62.0969 100.966 62.0969 100.863 62.0969H100.554C100.451 62.0969 100.29 62.0969 100.069 62.0969C99.8636 62.1116 99.6432 62.119 99.408 62.119C99.1876 62.1337 98.9671 62.1484 98.7467 62.1631C98.541 62.1778 98.3867 62.1851 98.2838 62.1851L98.2397 62.0969L98.2838 61.7883L98.372 61.7001C98.6071 61.7001 98.8349 61.6928 99.0553 61.6781C99.2905 61.6487 99.4668 61.5752 99.5844 61.4576C99.702 61.3548 99.7754 61.2225 99.8048 61.0609C99.8342 60.8992 99.8636 60.6714 99.893 60.3775C99.9077 60.157 99.915 59.8852 99.915 59.5619C99.9297 59.2385 99.9371 58.9152 99.9371 58.5919C99.9518 58.2539 99.9591 57.9379 99.9591 57.644C99.9738 57.3501 99.9812 57.1223 99.9812 56.9607C99.9812 56.8137 99.9812 56.6447 99.9812 56.4536C99.9812 56.2479 99.9738 56.0421 99.9591 55.8364C99.9444 55.6307 99.9224 55.4323 99.893 55.2412C99.8783 55.0502 99.8489 54.8738 99.8048 54.7122C99.6432 54.1096 99.3419 53.654 98.901 53.3454C98.4601 53.0368 97.9605 52.8825 97.402 52.8825C96.917 52.8825 96.4762 52.9927 96.0794 53.2132C95.6826 53.4189 95.3372 53.6761 95.0433 53.9847C94.7641 54.2786 94.5436 54.5946 94.382 54.9326C94.235 55.2559 94.1615 55.5351 94.1615 55.7703V58.2392C94.1615 58.5625 94.1615 58.8271 94.1615 59.0328C94.1762 59.2385 94.1836 59.4149 94.1836 59.5619C94.1983 59.7088 94.2056 59.8484 94.2056 59.9807C94.2203 60.0983 94.235 60.2305 94.2497 60.3775C94.2791 60.6861 94.3085 60.9212 94.3379 61.0829C94.382 61.2299 94.4628 61.3548 94.5804 61.4576C94.6979 61.5605 94.8596 61.6266 95.0653 61.656C95.2858 61.6854 95.5062 61.7001 95.7267 61.7001L95.8369 61.8104L95.881 62.0969L95.8369 62.1851C95.734 62.1851 95.5797 62.1778 95.374 62.1631C95.1682 62.1484 94.9478 62.1337 94.7126 62.119C94.4775 62.119 94.2571 62.1116 94.0513 62.0969C93.8456 62.0969 93.6913 62.0969 93.5884 62.0969H93.2798C93.1769 62.0969 93.0152 62.0969 92.7948 62.0969C92.5891 62.1116 92.3686 62.119 92.1335 62.119C91.913 62.1337 91.6926 62.1484 91.4722 62.1631C91.2664 62.1778 91.1121 62.1851 91.0092 62.1851L90.9872 62.0969L91.0092 61.7883L91.0974 61.7001C91.3325 61.7001 91.5603 61.6928 91.7808 61.6781C92.0159 61.6487 92.1923 61.5752 92.3098 61.4576C92.4274 61.3548 92.5009 61.2225 92.5303 61.0609C92.5744 60.8992 92.6111 60.6714 92.6405 60.3775C92.6552 60.1423 92.6699 59.9072 92.6846 59.6721C92.6993 59.4222 92.7066 59.0328 92.7066 58.5037V55.7923C92.7066 55.4837 92.7066 55.2265 92.7066 55.0208C92.7066 54.8003 92.6993 54.6093 92.6846 54.4476C92.6846 54.286 92.6772 54.139 92.6625 54.0067C92.6625 53.8745 92.6552 53.7349 92.6405 53.5879C92.6111 53.4262 92.567 53.2866 92.5082 53.1691C92.4494 53.0368 92.398 52.9486 92.3539 52.9045C92.207 52.7282 92.0233 52.6253 91.8028 52.5959C91.5824 52.5518 91.3546 52.5298 91.1195 52.5298L91.0313 52.4416V52.133Z" fill="white"/>
<rect x="0.663086" y="3.39209" width="37.7974" height="37.7974" fill="white"/>
<rect x="19.332" y="7.75342" width="20.3032" height="20.3032" transform="rotate(44.8056 19.332 7.75342)" fill="#1D1D1D"/>
</svg>
